<svg xmlns="http://www.w3.org/2000/svg" height="511pt" version="1.1" viewBox="-1 0 511 511.99912" width="511pt">
<g id="surface1">
<path d="M 496.410156 67.015625 L 496.410156 333.601562 C 496.410156 363.222656 472.421875 387.210938 442.800781 387.210938 L 325.789062 387.210938 L 255.15625 498.589844 L 183.988281 387.210938 L 67.648438 387.210938 C 38.027344 387.210938 14.035156 363.222656 14.035156 333.601562 L 14.035156 67.015625 C 14.035156 37.394531 38.027344 13.402344 67.648438 13.402344 L 442.800781 13.402344 C 472.285156 13.402344 496.410156 37.394531 496.410156 67.015625 Z M 496.410156 67.015625 " style=" stroke:none;fill-rule:nonzero;fill:rgb(46.666667%,96.862745%,66.666667%);fill-opacity:1;" />
<path d="M 442.800781 0 L 67.648438 0 C 30.65625 0 0.632812 30.023438 0.5 67.015625 L 0.5 333.601562 C 0.5 370.59375 30.523438 400.617188 67.648438 400.75 L 176.617188 400.75 L 243.898438 505.960938 C 246.308594 509.847656 250.597656 512.128906 255.15625 511.992188 C 259.714844 511.992188 264.003906 509.714844 266.414062 505.828125 L 333.027344 400.75 L 442.800781 400.75 C 479.792969 400.617188 509.8125 370.59375 509.8125 333.601562 L 509.8125 67.015625 C 509.679688 30.023438 479.792969 0 442.800781 0 Z M 483.007812 333.601562 C 483.007812 355.847656 464.914062 373.945312 442.800781 373.945312 L 325.789062 373.945312 C 321.234375 373.945312 316.945312 376.222656 314.398438 380.109375 L 255.15625 473.660156 L 195.246094 380.109375 C 192.832031 376.222656 188.542969 373.945312 183.988281 373.945312 L 67.648438 373.945312 C 45.398438 373.808594 27.441406 355.851562 27.304688 333.601562 L 27.304688 67.015625 C 27.304688 44.765625 45.398438 26.804688 67.648438 26.804688 L 442.796875 26.804688 C 465.046875 26.804688 483.007812 44.765625 483.007812 67.015625 Z M 483.007812 333.601562 " style=" stroke:none;fill-rule:nonzero;fill:rgb(14.117647%,70.196078%,38.039216%);fill-opacity:1;" />
<path d="M 145.253906 174.238281 L 244.433594 174.238281 C 251.804688 174.238281 257.835938 168.207031 257.835938 160.835938 C 257.835938 153.464844 251.808594 147.433594 244.433594 147.433594 L 145.253906 147.433594 C 137.882812 147.433594 131.847656 153.464844 131.847656 160.835938 C 131.847656 168.207031 137.878906 174.238281 145.253906 174.238281 Z M 145.253906 174.238281 " style=" stroke:none;fill-rule:nonzero;fill:rgb(14.117647%,70.196078%,38.039216%);fill-opacity:1;" />
<path d="M 365.0625 214.449219 L 145.253906 214.449219 C 137.882812 214.449219 131.847656 220.476562 131.847656 227.851562 C 131.847656 235.222656 137.878906 241.253906 145.253906 241.253906 L 365.0625 241.253906 C 372.433594 241.253906 378.464844 235.222656 378.464844 227.851562 C 378.464844 220.480469 372.433594 214.449219 365.0625 214.449219 Z M 365.0625 214.449219 " style=" stroke:none;fill-rule:nonzero;fill:rgb(14.117647%,70.196078%,38.039216%);fill-opacity:1;" />
</g>
</svg>